<?xml version="1.0" encoding="utf-8"?>
<!-- Generator: Adobe Illustrator 27.0.0, SVG Export Plug-In . SVG Version: 6.00 Build 0)  -->
<svg version="1.1" id="Layer_1" xmlns="http://www.w3.org/2000/svg" xmlns:xlink="http://www.w3.org/1999/xlink" x="0px" y="0px"
	 viewBox="0 0 141.1 48.96" style="enable-background:new 0 0 141.1 48.96;" xml:space="preserve">
<g>
	<path d="M0,3.05h5.57v7.12h11.95V3.05h5.57v23.41H0V3.05z M4.34,31.82h32.14v17.14h-5.57V36.37H4.34V31.82z M5.57,14.52v7.55h11.95
		v-7.55H5.57z M30.91,0h5.57v29.41h-5.57V0z M34.98,12.32h8.41v4.61h-8.41V12.32z"/>
	<path d="M60.96,3c2.43,0,4.61,0.54,6.54,1.61c1.93,1.07,3.45,2.54,4.55,4.39c1.11,1.86,1.66,4,1.66,6.43
		c0,2.43-0.55,4.58-1.66,6.46c-1.11,1.88-2.62,3.34-4.55,4.39c-1.93,1.05-4.11,1.58-6.54,1.58c-2.39,0-4.55-0.53-6.48-1.58
		c-1.93-1.05-3.45-2.52-4.55-4.39c-1.11-1.88-1.66-4.03-1.66-6.46c0-2.43,0.55-4.57,1.66-6.43c1.11-1.86,2.62-3.32,4.55-4.39
		C56.41,3.54,58.57,3,60.96,3z M60.96,7.98c-1.39,0-2.64,0.31-3.75,0.94c-1.11,0.63-1.99,1.49-2.65,2.6
		c-0.66,1.11-0.99,2.41-0.99,3.91s0.33,2.82,0.99,3.96c0.66,1.14,1.54,2.03,2.65,2.65c1.11,0.63,2.37,0.94,3.8,0.94
		c1.39,0,2.64-0.31,3.75-0.94c1.11-0.62,1.98-1.51,2.62-2.65c0.64-1.14,0.96-2.46,0.96-3.96s-0.32-2.8-0.96-3.91
		c-0.64-1.11-1.52-1.97-2.62-2.6C63.66,8.29,62.39,7.98,60.96,7.98z M56.41,32.41h5.62v13.18h-5.62V32.41z M56.41,43.39h33v4.55h-33
		V43.39z M69.96,7.23h14.62v4.55H69.96V7.23z M69.96,19.07h14.62v4.55H69.96V19.07z M82.5,0h5.62v36H82.5V0z"/>
	<path d="M96.85,27.48h44.25v4.55H96.85V27.48z M115.82,5.09h4.88v1.77c0,1.75-0.31,3.4-0.94,4.96c-0.63,1.55-1.53,3-2.71,4.34
		c-1.18,1.34-2.56,2.53-4.15,3.56c-1.59,1.04-3.36,1.91-5.3,2.62c-1.95,0.71-4.03,1.25-6.24,1.61l-2.09-4.45
		c1.93-0.25,3.72-0.66,5.38-1.23c1.66-0.57,3.18-1.27,4.55-2.09c1.37-0.82,2.55-1.73,3.54-2.73c0.98-1,1.74-2.05,2.28-3.16
		c0.54-1.11,0.8-2.25,0.8-3.43V5.09z M100.93,2.79h36.05v4.45h-36.05V2.79z M116.09,30.59h5.57v18.32h-5.57V30.59z M117.32,5.09
		h4.88v1.77c0,1.18,0.26,2.32,0.78,3.43c0.52,1.11,1.28,2.16,2.28,3.16c1,1,2.18,1.91,3.54,2.73c1.36,0.82,2.87,1.52,4.55,2.09
		c1.68,0.57,3.48,0.98,5.41,1.23l-2.09,4.45c-2.21-0.36-4.29-0.89-6.24-1.61c-1.95-0.71-3.72-1.59-5.33-2.62
		c-1.61-1.04-2.99-2.22-4.15-3.56c-1.16-1.34-2.05-2.79-2.68-4.34c-0.62-1.55-0.94-3.21-0.94-4.96V5.09z"/>
</g>
</svg>
